<svg width="47" height="41" viewBox="0 0 47 41" fill="none" xmlns="http://www.w3.org/2000/svg">
<path d="M45.2099 34.5411H44.0668C42.2064 34.5411 40.7947 33.7892 40.0595 32.9426C39.4237 32.2094 38.6549 31.6834 37.7898 31.6834H36.6252C35.76 31.6834 34.9913 32.2094 34.3554 32.9426C33.6217 33.7892 32.21 34.5411 30.3496 34.5411C28.4892 34.5411 27.0775 33.7892 26.3423 32.9426C25.7064 32.2094 24.9377 31.6834 24.0725 31.6834H22.908C22.0428 31.6834 21.2741 32.2094 20.6382 32.9426C19.9045 33.7892 18.4927 34.5411 16.6323 34.5411C14.7719 34.5411 13.3602 33.7892 12.6251 32.9426C11.9892 32.2094 11.2205 31.6834 10.3553 31.6834H9.19075C8.32556 31.6834 7.55682 32.2094 6.92097 32.9426C6.18724 33.7892 4.77551 34.5411 2.91511 34.5411H1.77201C1.14044 34.5411 0.628906 35.1806 0.628906 35.97V38.8278C0.628906 39.6172 1.14044 40.2567 1.77201 40.2567H2.91511C5.67428 40.2567 8.11052 39.168 9.77373 37.4132C11.4369 39.1689 13.8732 40.2567 16.6323 40.2567C19.3915 40.2567 21.8278 39.168 23.491 37.4132C25.1542 39.1689 27.5904 40.2567 30.3496 40.2567C33.1087 40.2567 35.545 39.168 37.2082 37.4132C38.8714 39.1689 41.3077 40.2567 44.0668 40.2567H45.2099C45.8415 40.2567 46.353 39.6172 46.353 38.8278V35.97C46.353 35.1806 45.8415 34.5411 45.2099 34.5411ZM16.6323 31.6834V23.1101H30.3496V31.6834C31.7156 31.6834 32.5543 31.1333 32.8065 30.8421C33.4617 30.0866 34.1783 29.5615 34.922 29.2284V8.82132C34.922 7.24598 35.9479 5.96356 37.2082 5.96356C38.4685 5.96356 39.4944 7.24598 39.4944 8.82132V10.2502C39.4944 11.0397 40.0059 11.6791 40.6375 11.6791H42.9237C43.5553 11.6791 44.0668 11.0397 44.0668 10.2502V8.82132C44.0668 4.09352 40.9904 0.248047 37.2082 0.248047C33.426 0.248047 30.3496 4.09352 30.3496 8.82132V17.3946H16.6323V8.82132C16.6323 7.24598 17.6583 5.96356 18.9186 5.96356C20.1788 5.96356 21.2048 7.24598 21.2048 8.82132V10.2502C21.2048 11.0397 21.7163 11.6791 22.3479 11.6791H24.6341C25.2656 11.6791 25.7772 11.0397 25.7772 10.2502V8.82132C25.7772 4.09352 22.7008 0.248047 18.9186 0.248047C15.1363 0.248047 12.0599 4.09352 12.0599 8.82132V29.2275C12.8037 29.5606 13.5203 30.0866 14.1754 30.8412C14.4276 31.1333 15.2663 31.6834 16.6323 31.6834Z" fill="black"/>
</svg>
